<?xml version="1.0" encoding="UTF-8" standalone="no"?>
<!-- Created with Inkscape (http://www.inkscape.org/) -->

<svg
   width="210mm"
   height="297mm"
   viewBox="0 0 210 297"
   version="1.1"
   id="svg679"
   inkscape:version="1.2.1 (9c6d41e410, 2022-07-14)"
   sodipodi:docname="logo.svg"
   xmlns:inkscape="http://www.inkscape.org/namespaces/inkscape"
   xmlns:sodipodi="http://sodipodi.sourceforge.net/DTD/sodipodi-0.dtd"
   xmlns:xlink="http://www.w3.org/1999/xlink"
   xmlns="http://www.w3.org/2000/svg"
   xmlns:svg="http://www.w3.org/2000/svg">
  <sodipodi:namedview
     id="namedview681"
     pagecolor="#505050"
     bordercolor="#eeeeee"
     borderopacity="1"
     inkscape:showpageshadow="0"
     inkscape:pageopacity="0"
     inkscape:pagecheckerboard="0"
     inkscape:deskcolor="#505050"
     inkscape:document-units="mm"
     showgrid="false"
     inkscape:zoom="0.71624579"
     inkscape:cx="142.40921"
     inkscape:cy="541.0154"
     inkscape:window-width="1920"
     inkscape:window-height="991"
     inkscape:window-x="-9"
     inkscape:window-y="-9"
     inkscape:window-maximized="1"
     inkscape:current-layer="layer1" />
  <defs
     id="defs676">
    <linearGradient
       inkscape:collect="always"
       id="linearGradient2728">
      <stop
         style="stop-color:#ffff00;stop-opacity:1;"
         offset="0.15605095"
         id="stop2724" />
      <stop
         style="stop-color:#ffff00;stop-opacity:0;"
         offset="1"
         id="stop2726" />
    </linearGradient>
    <linearGradient
       inkscape:collect="always"
       id="linearGradient1159">
      <stop
         style="stop-color:#ff2a2a;stop-opacity:1;"
         offset="0"
         id="stop1155" />
      <stop
         style="stop-color:#ff2a2a;stop-opacity:0;"
         offset="1"
         id="stop1157" />
    </linearGradient>
    <linearGradient
       inkscape:collect="always"
       xlink:href="#linearGradient1159"
       id="linearGradient1161"
       x1="55.041046"
       y1="151.08582"
       x2="54.671642"
       y2="148.1306"
       gradientUnits="userSpaceOnUse" />
    <radialGradient
       inkscape:collect="always"
       xlink:href="#linearGradient2728"
       id="radialGradient2734"
       cx="49.500008"
       cy="153.67163"
       fx="49.500008"
       fy="153.67163"
       r="9.6044779"
       gradientTransform="matrix(1,0,0,0.96153837,0.36940305,4.802252)"
       gradientUnits="userSpaceOnUse" />
    <radialGradient
       inkscape:collect="always"
       xlink:href="#linearGradient2728"
       id="radialGradient2734-4"
       cx="49.500008"
       cy="153.67163"
       fx="49.500008"
       fy="153.67163"
       r="9.6044779"
       gradientTransform="matrix(1,0,0,0.96153837,103.61753,5.7257721)"
       gradientUnits="userSpaceOnUse" />
  </defs>
  <g
     inkscape:label="Layer 1"
     inkscape:groupmode="layer"
     id="layer1">
    <path
       id="path686"
       style="fill:#000000;stroke-width:0.264583"
       d="m 0.34898293,113.77048 c -2.77807113,-0.0232 -5.60038083,0.0975 -8.47596843,0.37517 20.7580415,0.98474 42.8246725,11.75292 64.6203455,23.61303 L 20.326058,123.66755 c -5.464468,5.90261 -8.501729,13.64902 -8.505424,21.69273 -1.39e-4,17.64755 14.306058,31.95375 31.953605,31.95361 16.520862,-9e-4 30.317005,-12.59542 31.819247,-29.04784 3.138909,1.71593 6.266856,3.40967 9.369454,5.03638 l -7.018693,-25.85837 -1.477946,14.77585 C 49.915266,127.63288 27.20367,113.99459 0.34898293,113.77048 Z m 86.83035907,31.4048 1.611788,14.03739 4.298445,-13.15992 z m -79.7915123,9.60458 6.6497233,16.99276 20.317106,10.34304 C 21.175802,173.74253 11.050826,163.15298 7.3878297,154.77986 Z m 94.1193203,9.97407 c -4.084292,13.32595 -20.399933,27.17156 -36.12286,30.79864 l 20.53518,-1.96216 16.03598,26.94326 z"
       sodipodi:nodetypes="scccccccccsccccccccccccc" />
    <path
       id="path686-6"
       style="fill:#000000;stroke-width:0.264583"
       d="m 202.59856,114.32876 c 2.77807,-0.0232 5.60038,0.0975 8.47597,0.37517 -20.75804,0.98474 -42.82467,11.75292 -64.62035,23.61303 l 36.16731,-14.09113 c 5.46447,5.90262 8.50173,13.64902 8.50542,21.69273 1.4e-4,17.64755 -14.30605,31.95374 -31.9536,31.95361 -16.52086,-9e-4 -30.31701,-12.59542 -31.81925,-29.04784 -3.13891,1.71593 -6.26686,3.40967 -9.36946,5.03638 l 7.0187,-25.85837 1.47794,14.77585 c 26.55104,-14.58703 49.26263,-28.22532 76.11732,-28.44943 z m -86.83036,31.4048 -1.61179,14.03739 -4.29844,-13.15992 z m 79.79151,9.60458 -6.64972,16.99276 -20.3171,10.34304 c 13.17885,-8.37313 23.30383,-18.96268 26.96682,-27.3358 z m -94.11932,9.97407 c 4.0843,13.32595 20.39994,27.17156 36.12286,30.79864 l -20.53518,-1.96216 -15.66658,26.94326 z"
       sodipodi:nodetypes="scccccccccsccccccccccccc" />
    <path
       style="fill:#ffffff;stroke-width:0.264583"
       d="m 91.981342,189.87313 2.955223,-5.91045 1.10821,10.34329 z"
       id="path965" />
    <ellipse
       style="fill:#ff2a2a;stroke-width:0.195524"
       id="path1138"
       cx="50.238815"
       cy="152.93282"
       rx="9.6044779"
       ry="9.235074" />
    <ellipse
       style="fill:url(#radialGradient2734);fill-opacity:1;stroke-width:0.195524"
       id="ellipse1140"
       cx="49.869411"
       cy="152.56342"
       rx="9.6044779"
       ry="9.235074" />
    <g
       id="g1149">
      <g
         id="g1153"
         style="fill-opacity:1;fill:url(#linearGradient1161)">
        <g
           id="g1145"
           style="fill-opacity:1.0;fill:url(#linearGradient1161)">
          <ellipse
             style="fill:#ffa8a8;stroke-width:0.195524;fill-opacity:0"
             id="ellipse1142"
             cx="49.500008"
             cy="153.67163"
             rx="9.6044779"
             ry="9.235074" />
        </g>
      </g>
    </g>
    <circle
       style="fill:#000000;stroke:#000000;stroke-width:0.142642;stroke-opacity:1"
       id="path2788"
       cx="50.238808"
       cy="153.67162"
       r="3.385597" />
    <ellipse
       style="fill:#ff2a2a;stroke-width:0.195524"
       id="path1138-5"
       cx="153.48694"
       cy="153.85634"
       rx="9.6044779"
       ry="9.235074" />
    <ellipse
       style="fill:url(#radialGradient2734-4);fill-opacity:1;stroke-width:0.195524"
       id="ellipse1140-6"
       cx="153.11754"
       cy="153.48694"
       rx="9.6044779"
       ry="9.235074" />
    <circle
       style="fill:#000000;stroke:#000000;stroke-width:0.142642;stroke-opacity:1"
       id="path2788-8"
       cx="153.48692"
       cy="154.59514"
       r="3.385597" />
  </g>
</svg>
